#!OML:ASF E:/inclinewalkrobotboard/Project1/Captureday1/Session1/subject1.ASF
:FULLY-SPECIFIED
:DEGREES
51
root 0 0 0 1.8090383970303938 -10.32879817396917 0.9372153093719786
lowerback -0.06228150967108137 -1.581767315588824 -2.7063899080368894
upperback -0.5611937520446123 -2.066917913388588 1.8284662589983274
thorax -0.452051230964729 -1.026485065052063 3.330556632652451
lowerneck -25.73964811694703 -1.9243093565922582 -7.600629794425682
upperneck 24.16988967117244 -0.2444739774917607 2.5957679579665784
head 12.382710072429417 -0.6133064725079589 2.3187179355672267
rclavicle -2.6160490506231955E-15 -2.4018210884567394E-15
rhumerus -30.44307763592126 -0.23428286856045943 -82.28523218521069
rradius 31.916829152839643
rwrist 17.992749237634712
rhand -18.574039214481616 9.408651789845809
rfingers 7.125019999999937
rthumb 7.709682105619967 -20.36625553163168
lclavicle -6.2516462655572044E-15 2.3318423413907117E-15
lhumerus -21.679287748906926 -1.2442833601825622 92.04045632380954
lradius 61.38917239066001
lwrist 2.0805378966457138
lhand -28.376331502573453 20.708822444691748
lfingers 7.12502000000001
lthumb -1.7841046479057745 50.697221615401304
rfemur 16.027738025044574 7.213629676225032 34.86261482851798
rtibia 33.82789439737318
rfoot -15.433251545909648 -3.2118032369803955
rtoes -6.496317862715865
lfemur -31.09357425315296 -4.7674329231822075 -8.85734932694149
ltibia 22.534275743953604
lfoot -3.8828504362356826 4.0055910841010505
ltoes -2.625684146195786
52
root 0 0 0 1.8014519085038918 -10.402770584021129 0.9342108317219392
lowerback -0.15276593844904496 -1.5928672182928054 -2.722978166926298
upperback -0.5921472884307826 -2.0802129643925165 1.776898705062997
thorax -0.43505686052648895 -1.0314020010926086 3.2864906877805353
lowerneck -25.53948715754659 -1.8985050449920466 -7.660872091898712
upperneck 24.89784843355673 -0.1983364285660677 2.5231754769307377
head 12.612059275696355 -0.6243966654929672 2.3168300909944883
rclavicle -4.3871725073792575E-15 -1.832913189289597E-15
rhumerus -30.633205547347064 -0.360236404632289 -82.02184732648452
rradius 31.71317404233571
rwrist 18.052043341372915
rhand -18.566540889241818 9.456167649291952
rfingers 7.125019999999934
rthumb 7.716989552938485 -20.319146590641903
lclavicle -7.962674287286708E-15 2.8722320030988115E-15
lhumerus -20.945308925024165 -0.4094648192274075 91.74641889508557
lradius 61.17181642787829
lwrist 1.86503463402389
lhand -28.526062166656743 20.72377002905004
lfingers 7.125020000000009
lthumb -1.9223500131246043 50.698036809994136
rfemur 10.13928835210039 4.404867371341977 28.88483855393902
rtibia 50.25982345628893
rfoot -3.2197691603331826 0.6912120672236908
rtoes -3.0321945762593883
lfemur -27.895507933147325 -4.520361391492748 -11.568834468095046
ltibia 25.890806026113133
lfoot -2.4287060102878595 0.9220999840100736
ltoes 0.16528245613908155
53
root 0 0 0 1.809275873272826 -10.507023281974528 0.9246024854483744
lowerback -0.23306337477781858 -1.6243618860758993 -2.721577222484281
upperback -0.5775288178154305 -2.1206728093106144 1.7272252511919592
thorax -0.3709694398720925 -1.052721501571319 3.234823164509577
lowerneck -25.36488936945294 -1.86804892018133 -7.72795923138052
upperneck 25.76052723977249 -0.13509114820100976 2.4117264856614877
head 12.886877346309866 -0.6329876088368143 2.3059881136942515
rclavicle -6.279864194696851E-15 -6.330920236571155E-16
rhumerus -30.883709035858335 -0.8829912683613079 -81.83574252822238
rradius 31.5300559132947
rwrist 18.231729692713333
rhand -18.456351358701404 9.425851107887551
rfingers 7.125019999999934
rthumb 7.824510117444697 -20.353228855977576
lclavicle -8.294501699295112E-15 3.1668028450980905E-15
lhumerus -20.385571592312075 0.020979691686421553 91.5528511000733
lradius 61.05200133505684
lwrist 1.6828186244656784
lhand -28.677876378998647 20.680043106805915
lfingers 7.125020000000006
lthumb -2.0651338876603615 50.64214972462422
rfemur -1.5325422116228982 2.748503860104016 24.530768986216653
rtibia 61.36430211498683
rfoot 7.840111642487509 0.24401226067730608
rtoes 5.226702810354114
lfemur -23.03862219026272 -3.6655410667659205 -15.895502241371858
ltibia 33.37592220968814
lfoot -1.6129609836710275 -3.623665984259471
ltoes 4.504894415671242
54
root 0 0 0 1.827557864218559 -10.592214240213565 0.9123695750418483
lowerback -0.2717517281054178 -1.6618774129310445 -2.705099343072641
upperback -0.5234889747174035 -2.169994676163232 1.6903604144489912
thorax -0.28655804515488215 -1.0802219510070967 3.187711618099991
lowerneck -25.263243366881326 -1.848011709593134 -7.778511857168003
upperneck 26.474566074297627 -0.08866232012392128 2.3079333243396363
head 13.114583244231042 -0.6404495542510221 2.2912294396859045
rclavicle -7.703443711531548E-15 1.0478650352679775E-15
rhumerus -31.312373810737785 -1.985334007589477 -81.52787362567696
rradius 31.19971245289864
rwrist 18.54002522589038
rhand -18.216383102420448 9.390170852978244
rfingers 7.125019999999931
rthumb 8.056731401201544 -20.38767890856822
lclavicle -8.767111781621265E-15 3.782634986820718E-15
lhumerus -20.74272032788091 -0.5567513674931055 91.60386237459585
lradius 61.21569658191696
lwrist 2.0223156645046014
lhand -28.44085164317906 20.836131185381983
lfingers 7.125020000000007
lthumb -1.8366123739903113 50.81594285301892
rfemur -7.683610144203216 1.772335569295202 23.911496993690363
rtibia 66.8112804848453
rfoot 8.65401862505429 -2.1775861563362646
rtoes 11.159089135085498
lfemur -18.641290027973433 -2.9883904856607133 -19.630481719800873
ltibia 34.60569622320417
lfoot -3.121680631654799 -4.373770183916539
ltoes 7.519412172677608
